<svg width="54" height="53" viewBox="0 0 54 53" fill="none" xmlns="http://www.w3.org/2000/svg">
<path d="M53.4999 26.6685C53.4999 40.5544 41.7365 51.8478 27.1793 51.8478C12.6221 51.8478 0.858643 40.5544 0.858643 26.6685C0.858643 12.7826 12.6221 1.48914 27.1793 1.48914C41.7365 1.48914 53.4999 12.7826 53.4999 26.6685Z" fill="#7DC5CA" fill-opacity="0.32" stroke="#CA0000"/>
<path d="M17.4783 32.0925V36.3724H21.7582L34.381 23.7496L30.1011 19.4697L17.4783 32.0925ZM37.6908 20.4398C38.1359 19.9947 38.1359 19.2757 37.6908 18.8306L35.0201 16.1599C34.575 15.7148 33.856 15.7148 33.4109 16.1599L31.3223 18.2485L35.6022 22.5284L37.6908 20.4398Z" fill="black"/>
</svg>
