<svg width="36" height="25" viewBox="0 0 36 25" fill="none" xmlns="http://www.w3.org/2000/svg">
<path d="M18 0C9.81818 0 2.83091 5.18333 0 12.5C2.83091 19.8167 9.81818 25 18 25C26.1818 25 33.1691 19.8167 36 12.5C33.1691 5.18333 26.1818 0 18 0ZM18 20.8333C13.4836 20.8333 9.81818 17.1 9.81818 12.5C9.81818 7.9 13.4836 4.16667 18 4.16667C22.5164 4.16667 26.1818 7.9 26.1818 12.5C26.1818 17.1 22.5164 20.8333 18 20.8333ZM18 7.5C15.2836 7.5 13.0909 9.73333 13.0909 12.5C13.0909 15.2667 15.2836 17.5 18 17.5C20.7164 17.5 22.9091 15.2667 22.9091 12.5C22.9091 9.73333 20.7164 7.5 18 7.5Z" fill="#F2777A" fill-opacity="0.5"/>
</svg>
